<?xml version="1.0" encoding="utf-8" standalone="no"?>
<!DOCTYPE svg PUBLIC "-//W3C//DTD SVG 1.1//EN"
  "http://www.w3.org/Graphics/SVG/1.1/DTD/svg11.dtd">
<svg xmlns:xlink="http://www.w3.org/1999/xlink" width="660.001pt" height="168.28035pt" viewBox="0 0 660.001 168.28035" xmlns="http://www.w3.org/2000/svg" version="1.1">
 <metadata>
  <rdf:RDF xmlns:dc="http://purl.org/dc/elements/1.1/" xmlns:cc="http://creativecommons.org/ns#" xmlns:rdf="http://www.w3.org/1999/02/22-rdf-syntax-ns#">
   <cc:Work>
    <dc:type rdf:resource="http://purl.org/dc/dcmitype/StillImage"/>
    <dc:date>2024-08-27T00:11:15.174875</dc:date>
    <dc:format>image/svg+xml</dc:format>
    <dc:creator>
     <cc:Agent>
      <dc:title>Matplotlib v3.9.2, https://matplotlib.org/</dc:title>
     </cc:Agent>
    </dc:creator>
   </cc:Work>
  </rdf:RDF>
 </metadata>
 <defs>
  <style type="text/css">*{stroke-linejoin: round; stroke-linecap: butt}</style>
 </defs>
 <g id="figure_1">
  <g id="patch_1">
   <path d="M 0 168.28035 
L 660.001 168.28035 
L 660.001 0 
L 0 0 
L 0 168.28035 
z
" style="fill: none"/>
  </g>
  <g id="axes_1">
   <g id="patch_2">
    <path d="M 29.78375 145.9666 
L 205.86375 145.9666 
L 205.86375 40.2666 
L 29.78375 40.2666 
L 29.78375 145.9666 
z
" style="fill: none"/>
   </g>
   <g id="matplotlib.axis_1">
    <g id="xtick_1">
     <g id="line2d_1">
      <path d="M 37.787386 145.9666 
L 37.787386 40.2666 
" clip-path="url(#p6f28f84045)" style="fill: none; stroke-dasharray: 1.48,0.64; stroke-dashoffset: 0; stroke: #838383; stroke-opacity: 0.25; stroke-width: 0.4"/>
     </g>
     <g id="line2d_2"/>
     <g id="text_1">
      <!-- 0 -->
      <g style="fill: #838383" transform="translate(33.969886 158.584725) scale(0.12 -0.12)">
       <defs>
        <path id="DejaVuSerif-30" d="M 2034 219 
Q 2513 219 2750 744 
Q 2988 1269 2988 2328 
Q 2988 3391 2750 3916 
Q 2513 4441 2034 4441 
Q 1556 4441 1318 3916 
Q 1081 3391 1081 2328 
Q 1081 1269 1318 744 
Q 1556 219 2034 219 
z
M 2034 -91 
Q 1275 -91 848 546 
Q 422 1184 422 2328 
Q 422 3475 848 4112 
Q 1275 4750 2034 4750 
Q 2797 4750 3222 4112 
Q 3647 3475 3647 2328 
Q 3647 1184 3222 546 
Q 2797 -91 2034 -91 
z
" transform="scale(0.015625)"/>
       </defs>
       <use xlink:href="#DejaVuSerif-30"/>
      </g>
     </g>
    </g>
    <g id="xtick_2">
     <g id="line2d_3">
      <path d="M 103.123193 145.9666 
L 103.123193 40.2666 
" clip-path="url(#p6f28f84045)" style="fill: none; stroke-dasharray: 1.48,0.64; stroke-dashoffset: 0; stroke: #838383; stroke-opacity: 0.25; stroke-width: 0.4"/>
     </g>
     <g id="line2d_4"/>
     <g id="text_2">
      <!-- 20 -->
      <g style="fill: #838383" transform="translate(95.488193 158.584725) scale(0.12 -0.12)">
       <defs>
        <path id="DejaVuSerif-32" d="M 819 3553 
L 469 3553 
L 469 4384 
Q 803 4563 1142 4656 
Q 1481 4750 1806 4750 
Q 2534 4750 2956 4397 
Q 3378 4044 3378 3438 
Q 3378 2753 2422 1800 
Q 2347 1728 2309 1691 
L 1131 513 
L 3078 513 
L 3078 1088 
L 3444 1088 
L 3444 0 
L 434 0 
L 434 341 
L 1850 1753 
Q 2319 2222 2519 2614 
Q 2719 3006 2719 3438 
Q 2719 3909 2473 4175 
Q 2228 4441 1797 4441 
Q 1350 4441 1106 4219 
Q 863 3997 819 3553 
z
" transform="scale(0.015625)"/>
       </defs>
       <use xlink:href="#DejaVuSerif-32"/>
       <use xlink:href="#DejaVuSerif-30" x="63.623047"/>
      </g>
     </g>
    </g>
    <g id="xtick_3">
     <g id="line2d_5">
      <path d="M 168.459 145.9666 
L 168.459 40.2666 
" clip-path="url(#p6f28f84045)" style="fill: none; stroke-dasharray: 1.48,0.64; stroke-dashoffset: 0; stroke: #838383; stroke-opacity: 0.25; stroke-width: 0.4"/>
     </g>
     <g id="line2d_6"/>
     <g id="text_3">
      <!-- 40 -->
      <g style="fill: #838383" transform="translate(160.824 158.584725) scale(0.12 -0.12)">
       <defs>
        <path id="DejaVuSerif-34" d="M 2234 1581 
L 2234 4063 
L 641 1581 
L 2234 1581 
z
M 3609 0 
L 1484 0 
L 1484 331 
L 2234 331 
L 2234 1247 
L 197 1247 
L 197 1588 
L 2241 4750 
L 2859 4750 
L 2859 1581 
L 3750 1581 
L 3750 1247 
L 2859 1247 
L 2859 331 
L 3609 331 
L 3609 0 
z
" transform="scale(0.015625)"/>
       </defs>
       <use xlink:href="#DejaVuSerif-34"/>
       <use xlink:href="#DejaVuSerif-30" x="63.623047"/>
      </g>
     </g>
    </g>
   </g>
   <g id="matplotlib.axis_2">
    <g id="ytick_1">
     <g id="line2d_7">
      <path d="M 29.78375 141.162055 
L 205.86375 141.162055 
" clip-path="url(#p6f28f84045)" style="fill: none; stroke-dasharray: 1.48,0.64; stroke-dashoffset: 0; stroke: #838383; stroke-opacity: 0.25; stroke-width: 0.4"/>
     </g>
     <g id="line2d_8"/>
     <g id="text_4">
      <!-- 0.0 -->
      <g style="fill: #838383" transform="translate(7.2 145.721117) scale(0.12 -0.12)">
       <defs>
        <path id="DejaVuSerif-2e" d="M 603 325 
Q 603 500 722 622 
Q 841 744 1019 744 
Q 1191 744 1312 622 
Q 1434 500 1434 325 
Q 1434 153 1312 31 
Q 1191 -91 1019 -91 
Q 841 -91 722 29 
Q 603 150 603 325 
z
" transform="scale(0.015625)"/>
       </defs>
       <use xlink:href="#DejaVuSerif-30"/>
       <use xlink:href="#DejaVuSerif-2e" x="63.623047"/>
       <use xlink:href="#DejaVuSerif-30" x="95.410156"/>
      </g>
     </g>
    </g>
    <g id="ytick_2">
     <g id="line2d_9">
      <path d="M 29.78375 93.1166 
L 205.86375 93.1166 
" clip-path="url(#p6f28f84045)" style="fill: none; stroke-dasharray: 1.48,0.64; stroke-dashoffset: 0; stroke: #838383; stroke-opacity: 0.25; stroke-width: 0.4"/>
     </g>
     <g id="line2d_10"/>
     <g id="text_5">
      <!-- 0.5 -->
      <g style="fill: #838383" transform="translate(7.2 97.675662) scale(0.12 -0.12)">
       <defs>
        <path id="DejaVuSerif-35" d="M 3219 4666 
L 3219 4153 
L 1081 4153 
L 1081 2816 
Q 1244 2928 1461 2984 
Q 1678 3041 1947 3041 
Q 2703 3041 3140 2622 
Q 3578 2203 3578 1478 
Q 3578 738 3136 323 
Q 2694 -91 1894 -91 
Q 1572 -91 1234 -12 
Q 897 66 544 225 
L 544 1131 
L 897 1131 
Q 925 688 1179 453 
Q 1434 219 1894 219 
Q 2388 219 2653 544 
Q 2919 869 2919 1478 
Q 2919 2084 2655 2407 
Q 2391 2731 1894 2731 
Q 1613 2731 1398 2631 
Q 1184 2531 1019 2322 
L 750 2322 
L 750 4666 
L 3219 4666 
z
" transform="scale(0.015625)"/>
       </defs>
       <use xlink:href="#DejaVuSerif-30"/>
       <use xlink:href="#DejaVuSerif-2e" x="63.623047"/>
       <use xlink:href="#DejaVuSerif-35" x="95.410156"/>
      </g>
     </g>
    </g>
    <g id="ytick_3">
     <g id="line2d_11">
      <path d="M 29.78375 45.071145 
L 205.86375 45.071145 
" clip-path="url(#p6f28f84045)" style="fill: none; stroke-dasharray: 1.48,0.64; stroke-dashoffset: 0; stroke: #838383; stroke-opacity: 0.25; stroke-width: 0.4"/>
     </g>
     <g id="line2d_12"/>
     <g id="text_6">
      <!-- 1.0 -->
      <g style="fill: #838383" transform="translate(7.2 49.630208) scale(0.12 -0.12)">
       <defs>
        <path id="DejaVuSerif-31" d="M 909 0 
L 909 331 
L 1722 331 
L 1722 4213 
L 781 3603 
L 781 4013 
L 1919 4750 
L 2350 4750 
L 2350 331 
L 3163 331 
L 3163 0 
L 909 0 
z
" transform="scale(0.015625)"/>
       </defs>
       <use xlink:href="#DejaVuSerif-31"/>
       <use xlink:href="#DejaVuSerif-2e" x="63.623047"/>
       <use xlink:href="#DejaVuSerif-30" x="95.410156"/>
      </g>
     </g>
    </g>
   </g>
   <g id="line2d_13">
    <path d="M 37.787386 141.162055 
L 41.054177 141.162055 
L 44.320967 141.162055 
L 47.587757 141.162055 
L 50.854548 141.162055 
L 54.121338 141.162055 
L 57.388128 141.162055 
L 60.654919 141.162055 
L 63.921709 141.162055 
L 67.1885 141.162055 
L 70.45529 141.162055 
L 73.72208 141.162055 
L 76.988871 141.162055 
L 80.255661 141.162055 
L 83.522451 141.162055 
L 86.789242 141.162055 
L 90.056032 141.162055 
L 93.322822 141.162055 
L 96.589613 141.162055 
L 99.856403 141.162055 
L 103.123193 141.162055 
L 106.389984 141.162055 
L 109.656774 141.162055 
L 112.923564 141.162055 
L 116.190355 141.162055 
L 119.457145 141.162055 
L 122.723936 141.162055 
L 125.990726 141.162055 
L 129.257516 45.071145 
L 132.524307 141.162055 
L 135.791097 141.162055 
L 139.057887 141.162055 
L 142.324678 141.162055 
L 145.591468 141.162055 
L 148.858258 141.162055 
L 152.125049 141.162055 
L 155.391839 141.162055 
L 158.658629 141.162055 
L 161.92542 141.162055 
L 165.19221 141.162055 
L 168.459 141.162055 
L 171.725791 141.162055 
L 174.992581 141.162055 
L 178.259372 45.071145 
L 181.526162 141.162055 
L 184.792952 141.162055 
L 188.059743 141.162055 
L 191.326533 141.162055 
L 194.593323 45.071145 
L 197.860114 141.162055 
" clip-path="url(#p6f28f84045)" style="fill: none"/>
    <defs>
     <path id="m73c76f1119" d="M 0 3 
C 0.795609 3 1.55874 2.683901 2.12132 2.12132 
C 2.683901 1.55874 3 0.795609 3 0 
C 3 -0.795609 2.683901 -1.55874 2.12132 -2.12132 
C 1.55874 -2.683901 0.795609 -3 0 -3 
C -0.795609 -3 -1.55874 -2.683901 -2.12132 -2.12132 
C -2.683901 -1.55874 -3 -0.795609 -3 0 
C -3 0.795609 -2.683901 1.55874 -2.12132 2.12132 
C -1.55874 2.683901 -0.795609 3 0 3 
z
" style="stroke: #2196f3"/>
    </defs>
    <g clip-path="url(#p6f28f84045)">
     <use xlink:href="#m73c76f1119" x="37.787386" y="141.162055" style="fill: #2196f3; stroke: #2196f3"/>
     <use xlink:href="#m73c76f1119" x="41.054177" y="141.162055" style="fill: #2196f3; stroke: #2196f3"/>
     <use xlink:href="#m73c76f1119" x="44.320967" y="141.162055" style="fill: #2196f3; stroke: #2196f3"/>
     <use xlink:href="#m73c76f1119" x="47.587757" y="141.162055" style="fill: #2196f3; stroke: #2196f3"/>
     <use xlink:href="#m73c76f1119" x="50.854548" y="141.162055" style="fill: #2196f3; stroke: #2196f3"/>
     <use xlink:href="#m73c76f1119" x="54.121338" y="141.162055" style="fill: #2196f3; stroke: #2196f3"/>
     <use xlink:href="#m73c76f1119" x="57.388128" y="141.162055" style="fill: #2196f3; stroke: #2196f3"/>
     <use xlink:href="#m73c76f1119" x="60.654919" y="141.162055" style="fill: #2196f3; stroke: #2196f3"/>
     <use xlink:href="#m73c76f1119" x="63.921709" y="141.162055" style="fill: #2196f3; stroke: #2196f3"/>
     <use xlink:href="#m73c76f1119" x="67.1885" y="141.162055" style="fill: #2196f3; stroke: #2196f3"/>
     <use xlink:href="#m73c76f1119" x="70.45529" y="141.162055" style="fill: #2196f3; stroke: #2196f3"/>
     <use xlink:href="#m73c76f1119" x="73.72208" y="141.162055" style="fill: #2196f3; stroke: #2196f3"/>
     <use xlink:href="#m73c76f1119" x="76.988871" y="141.162055" style="fill: #2196f3; stroke: #2196f3"/>
     <use xlink:href="#m73c76f1119" x="80.255661" y="141.162055" style="fill: #2196f3; stroke: #2196f3"/>
     <use xlink:href="#m73c76f1119" x="83.522451" y="141.162055" style="fill: #2196f3; stroke: #2196f3"/>
     <use xlink:href="#m73c76f1119" x="86.789242" y="141.162055" style="fill: #2196f3; stroke: #2196f3"/>
     <use xlink:href="#m73c76f1119" x="90.056032" y="141.162055" style="fill: #2196f3; stroke: #2196f3"/>
     <use xlink:href="#m73c76f1119" x="93.322822" y="141.162055" style="fill: #2196f3; stroke: #2196f3"/>
     <use xlink:href="#m73c76f1119" x="96.589613" y="141.162055" style="fill: #2196f3; stroke: #2196f3"/>
     <use xlink:href="#m73c76f1119" x="99.856403" y="141.162055" style="fill: #2196f3; stroke: #2196f3"/>
     <use xlink:href="#m73c76f1119" x="103.123193" y="141.162055" style="fill: #2196f3; stroke: #2196f3"/>
     <use xlink:href="#m73c76f1119" x="106.389984" y="141.162055" style="fill: #2196f3; stroke: #2196f3"/>
     <use xlink:href="#m73c76f1119" x="109.656774" y="141.162055" style="fill: #2196f3; stroke: #2196f3"/>
     <use xlink:href="#m73c76f1119" x="112.923564" y="141.162055" style="fill: #2196f3; stroke: #2196f3"/>
     <use xlink:href="#m73c76f1119" x="116.190355" y="141.162055" style="fill: #2196f3; stroke: #2196f3"/>
     <use xlink:href="#m73c76f1119" x="119.457145" y="141.162055" style="fill: #2196f3; stroke: #2196f3"/>
     <use xlink:href="#m73c76f1119" x="122.723936" y="141.162055" style="fill: #2196f3; stroke: #2196f3"/>
     <use xlink:href="#m73c76f1119" x="125.990726" y="141.162055" style="fill: #2196f3; stroke: #2196f3"/>
     <use xlink:href="#m73c76f1119" x="129.257516" y="45.071145" style="fill: #2196f3; stroke: #2196f3"/>
     <use xlink:href="#m73c76f1119" x="132.524307" y="141.162055" style="fill: #2196f3; stroke: #2196f3"/>
     <use xlink:href="#m73c76f1119" x="135.791097" y="141.162055" style="fill: #2196f3; stroke: #2196f3"/>
     <use xlink:href="#m73c76f1119" x="139.057887" y="141.162055" style="fill: #2196f3; stroke: #2196f3"/>
     <use xlink:href="#m73c76f1119" x="142.324678" y="141.162055" style="fill: #2196f3; stroke: #2196f3"/>
     <use xlink:href="#m73c76f1119" x="145.591468" y="141.162055" style="fill: #2196f3; stroke: #2196f3"/>
     <use xlink:href="#m73c76f1119" x="148.858258" y="141.162055" style="fill: #2196f3; stroke: #2196f3"/>
     <use xlink:href="#m73c76f1119" x="152.125049" y="141.162055" style="fill: #2196f3; stroke: #2196f3"/>
     <use xlink:href="#m73c76f1119" x="155.391839" y="141.162055" style="fill: #2196f3; stroke: #2196f3"/>
     <use xlink:href="#m73c76f1119" x="158.658629" y="141.162055" style="fill: #2196f3; stroke: #2196f3"/>
     <use xlink:href="#m73c76f1119" x="161.92542" y="141.162055" style="fill: #2196f3; stroke: #2196f3"/>
     <use xlink:href="#m73c76f1119" x="165.19221" y="141.162055" style="fill: #2196f3; stroke: #2196f3"/>
     <use xlink:href="#m73c76f1119" x="168.459" y="141.162055" style="fill: #2196f3; stroke: #2196f3"/>
     <use xlink:href="#m73c76f1119" x="171.725791" y="141.162055" style="fill: #2196f3; stroke: #2196f3"/>
     <use xlink:href="#m73c76f1119" x="174.992581" y="141.162055" style="fill: #2196f3; stroke: #2196f3"/>
     <use xlink:href="#m73c76f1119" x="178.259372" y="45.071145" style="fill: #2196f3; stroke: #2196f3"/>
     <use xlink:href="#m73c76f1119" x="181.526162" y="141.162055" style="fill: #2196f3; stroke: #2196f3"/>
     <use xlink:href="#m73c76f1119" x="184.792952" y="141.162055" style="fill: #2196f3; stroke: #2196f3"/>
     <use xlink:href="#m73c76f1119" x="188.059743" y="141.162055" style="fill: #2196f3; stroke: #2196f3"/>
     <use xlink:href="#m73c76f1119" x="191.326533" y="141.162055" style="fill: #2196f3; stroke: #2196f3"/>
     <use xlink:href="#m73c76f1119" x="194.593323" y="45.071145" style="fill: #2196f3; stroke: #2196f3"/>
     <use xlink:href="#m73c76f1119" x="197.860114" y="141.162055" style="fill: #2196f3; stroke: #2196f3"/>
    </g>
   </g>
   <g id="patch_3">
    <path d="M 29.78375 145.9666 
L 29.78375 40.2666 
" style="fill: none"/>
   </g>
   <g id="patch_4">
    <path d="M 205.86375 145.9666 
L 205.86375 40.2666 
" style="fill: none"/>
   </g>
   <g id="patch_5">
    <path d="M 29.78375 145.9666 
L 205.86375 145.9666 
" style="fill: none"/>
   </g>
   <g id="patch_6">
    <path d="M 29.78375 40.2666 
L 205.86375 40.2666 
" style="fill: none"/>
   </g>
   <g id="text_7">
    <!-- (a) Sample outcomes -->
    <g style="fill: #838383" transform="translate(41.09425 34.2666) scale(0.144 -0.144)">
     <defs>
      <path id="DejaVuSerif-28" d="M 2041 -997 
Q 1281 -656 893 83 
Q 506 822 506 1931 
Q 506 3044 893 3783 
Q 1281 4522 2041 4863 
L 2041 4556 
Q 1559 4225 1350 3623 
Q 1141 3022 1141 1931 
Q 1141 844 1350 242 
Q 1559 -359 2041 -691 
L 2041 -997 
z
" transform="scale(0.015625)"/>
      <path id="DejaVuSerif-61" d="M 2547 1044 
L 2547 1747 
L 1806 1747 
Q 1378 1747 1168 1562 
Q 959 1378 959 997 
Q 959 650 1171 447 
Q 1384 244 1747 244 
Q 2106 244 2326 466 
Q 2547 688 2547 1044 
z
M 3122 2075 
L 3122 331 
L 3634 331 
L 3634 0 
L 2547 0 
L 2547 359 
Q 2356 128 2106 18 
Q 1856 -91 1522 -91 
Q 969 -91 644 203 
Q 319 497 319 997 
Q 319 1513 691 1797 
Q 1063 2081 1741 2081 
L 2547 2081 
L 2547 2309 
Q 2547 2688 2317 2895 
Q 2088 3103 1672 3103 
Q 1328 3103 1125 2947 
Q 922 2791 872 2484 
L 575 2484 
L 575 3156 
Q 875 3284 1158 3348 
Q 1441 3413 1709 3413 
Q 2400 3413 2761 3070 
Q 3122 2728 3122 2075 
z
" transform="scale(0.015625)"/>
      <path id="DejaVuSerif-29" d="M 453 -997 
L 453 -691 
Q 934 -359 1145 242 
Q 1356 844 1356 1931 
Q 1356 3022 1145 3623 
Q 934 4225 453 4556 
L 453 4863 
Q 1216 4522 1603 3783 
Q 1991 3044 1991 1931 
Q 1991 822 1603 83 
Q 1216 -656 453 -997 
z
" transform="scale(0.015625)"/>
      <path id="DejaVuSerif-20" transform="scale(0.015625)"/>
      <path id="DejaVuSerif-53" d="M 594 225 
L 594 1288 
L 953 1284 
Q 969 753 1261 498 
Q 1553 244 2150 244 
Q 2706 244 2998 464 
Q 3291 684 3291 1106 
Q 3291 1444 3114 1625 
Q 2938 1806 2369 1978 
L 1753 2163 
Q 1084 2366 811 2669 
Q 538 2972 538 3500 
Q 538 4094 959 4422 
Q 1381 4750 2144 4750 
Q 2469 4750 2856 4679 
Q 3244 4609 3681 4475 
L 3681 3481 
L 3328 3481 
Q 3275 3975 2998 4195 
Q 2722 4416 2156 4416 
Q 1663 4416 1405 4214 
Q 1147 4013 1147 3628 
Q 1147 3294 1340 3103 
Q 1534 2913 2163 2725 
L 2741 2553 
Q 3375 2363 3645 2067 
Q 3916 1772 3916 1275 
Q 3916 597 3481 253 
Q 3047 -91 2188 -91 
Q 1803 -91 1404 -12 
Q 1006 66 594 225 
z
" transform="scale(0.015625)"/>
      <path id="DejaVuSerif-6d" d="M 3316 2675 
Q 3481 3041 3739 3227 
Q 3997 3413 4341 3413 
Q 4863 3413 5119 3089 
Q 5375 2766 5375 2113 
L 5375 331 
L 5894 331 
L 5894 0 
L 4300 0 
L 4300 331 
L 4800 331 
L 4800 2047 
Q 4800 2556 4650 2772 
Q 4500 2988 4153 2988 
Q 3769 2988 3567 2697 
Q 3366 2406 3366 1850 
L 3366 331 
L 3866 331 
L 3866 0 
L 2291 0 
L 2291 331 
L 2791 331 
L 2791 2069 
Q 2791 2566 2641 2777 
Q 2491 2988 2144 2988 
Q 1759 2988 1557 2697 
Q 1356 2406 1356 1850 
L 1356 331 
L 1856 331 
L 1856 0 
L 263 0 
L 263 331 
L 781 331 
L 781 2994 
L 231 2994 
L 231 3322 
L 1356 3322 
L 1356 2731 
Q 1516 3063 1762 3238 
Q 2009 3413 2322 3413 
Q 2709 3413 2968 3220 
Q 3228 3028 3316 2675 
z
" transform="scale(0.015625)"/>
      <path id="DejaVuSerif-70" d="M 1313 1825 
L 1313 1497 
Q 1313 897 1542 583 
Q 1772 269 2209 269 
Q 2650 269 2876 622 
Q 3103 975 3103 1663 
Q 3103 2353 2876 2703 
Q 2650 3053 2209 3053 
Q 1772 3053 1542 2737 
Q 1313 2422 1313 1825 
z
M 738 2988 
L 184 2988 
L 184 3322 
L 1313 3322 
L 1313 2803 
Q 1481 3116 1742 3264 
Q 2003 3413 2388 3413 
Q 3000 3413 3387 2928 
Q 3775 2444 3775 1663 
Q 3775 881 3387 395 
Q 3000 -91 2388 -91 
Q 2003 -91 1742 57 
Q 1481 206 1313 519 
L 1313 -997 
L 1856 -997 
L 1856 -1331 
L 184 -1331 
L 184 -997 
L 738 -997 
L 738 2988 
z
" transform="scale(0.015625)"/>
      <path id="DejaVuSerif-6c" d="M 1313 331 
L 1856 331 
L 1856 0 
L 184 0 
L 184 331 
L 738 331 
L 738 4531 
L 184 4531 
L 184 4863 
L 1313 4863 
L 1313 331 
z
" transform="scale(0.015625)"/>
      <path id="DejaVuSerif-65" d="M 3469 1600 
L 991 1600 
L 991 1575 
Q 991 903 1244 561 
Q 1497 219 1991 219 
Q 2369 219 2611 417 
Q 2853 616 2950 1006 
L 3413 1006 
Q 3275 459 2904 184 
Q 2534 -91 1931 -91 
Q 1203 -91 761 389 
Q 319 869 319 1663 
Q 319 2450 753 2931 
Q 1188 3413 1894 3413 
Q 2647 3413 3050 2948 
Q 3453 2484 3469 1600 
z
M 2791 1931 
Q 2772 2513 2545 2808 
Q 2319 3103 1894 3103 
Q 1497 3103 1269 2806 
Q 1041 2509 991 1931 
L 2791 1931 
z
" transform="scale(0.015625)"/>
      <path id="DejaVuSerif-6f" d="M 1925 219 
Q 2388 219 2623 584 
Q 2859 950 2859 1663 
Q 2859 2375 2623 2739 
Q 2388 3103 1925 3103 
Q 1463 3103 1227 2739 
Q 991 2375 991 1663 
Q 991 950 1228 584 
Q 1466 219 1925 219 
z
M 1925 -91 
Q 1200 -91 759 389 
Q 319 869 319 1663 
Q 319 2456 758 2934 
Q 1197 3413 1925 3413 
Q 2653 3413 3092 2934 
Q 3531 2456 3531 1663 
Q 3531 869 3092 389 
Q 2653 -91 1925 -91 
z
" transform="scale(0.015625)"/>
      <path id="DejaVuSerif-75" d="M 2266 3322 
L 3341 3322 
L 3341 331 
L 3884 331 
L 3884 0 
L 2766 0 
L 2766 588 
Q 2606 256 2353 82 
Q 2100 -91 1766 -91 
Q 1213 -91 952 223 
Q 691 538 691 1209 
L 691 2988 
L 172 2988 
L 172 3322 
L 1269 3322 
L 1269 1388 
Q 1269 781 1417 556 
Q 1566 331 1947 331 
Q 2347 331 2556 625 
Q 2766 919 2766 1478 
L 2766 2988 
L 2266 2988 
L 2266 3322 
z
" transform="scale(0.015625)"/>
      <path id="DejaVuSerif-74" d="M 691 2988 
L 184 2988 
L 184 3322 
L 691 3322 
L 691 4353 
L 1269 4353 
L 1269 3322 
L 2350 3322 
L 2350 2988 
L 1269 2988 
L 1269 878 
Q 1269 456 1350 337 
Q 1431 219 1650 219 
Q 1875 219 1978 351 
Q 2081 484 2088 781 
L 2522 781 
Q 2497 328 2275 118 
Q 2053 -91 1600 -91 
Q 1103 -91 897 129 
Q 691 350 691 878 
L 691 2988 
z
" transform="scale(0.015625)"/>
      <path id="DejaVuSerif-63" d="M 3291 997 
Q 3169 466 2822 187 
Q 2475 -91 1925 -91 
Q 1200 -91 759 389 
Q 319 869 319 1663 
Q 319 2459 759 2936 
Q 1200 3413 1925 3413 
Q 2241 3413 2553 3339 
Q 2866 3266 3181 3116 
L 3181 2266 
L 2847 2266 
Q 2781 2703 2561 2903 
Q 2341 3103 1931 3103 
Q 1466 3103 1228 2742 
Q 991 2381 991 1663 
Q 991 944 1227 581 
Q 1463 219 1931 219 
Q 2303 219 2525 412 
Q 2747 606 2828 997 
L 3291 997 
z
" transform="scale(0.015625)"/>
      <path id="DejaVuSerif-73" d="M 359 184 
L 359 959 
L 691 959 
Q 703 588 923 403 
Q 1144 219 1575 219 
Q 1963 219 2166 364 
Q 2369 509 2369 788 
Q 2369 1006 2220 1140 
Q 2072 1275 1594 1428 
L 1178 1569 
Q 750 1706 558 1912 
Q 366 2119 366 2438 
Q 366 2894 700 3153 
Q 1034 3413 1625 3413 
Q 1888 3413 2178 3344 
Q 2469 3275 2778 3144 
L 2778 2419 
L 2447 2419 
Q 2434 2741 2221 2922 
Q 2009 3103 1644 3103 
Q 1281 3103 1095 2975 
Q 909 2847 909 2591 
Q 909 2381 1050 2254 
Q 1191 2128 1613 1997 
L 2069 1856 
Q 2541 1709 2748 1489 
Q 2956 1269 2956 922 
Q 2956 450 2595 179 
Q 2234 -91 1600 -91 
Q 1278 -91 972 -22 
Q 666 47 359 184 
z
" transform="scale(0.015625)"/>
     </defs>
     <use xlink:href="#DejaVuSerif-28"/>
     <use xlink:href="#DejaVuSerif-61" x="39.013672"/>
     <use xlink:href="#DejaVuSerif-29" x="98.632812"/>
     <use xlink:href="#DejaVuSerif-20" x="137.646484"/>
     <use xlink:href="#DejaVuSerif-53" x="169.433594"/>
     <use xlink:href="#DejaVuSerif-61" x="237.939453"/>
     <use xlink:href="#DejaVuSerif-6d" x="297.558594"/>
     <use xlink:href="#DejaVuSerif-70" x="392.382812"/>
     <use xlink:href="#DejaVuSerif-6c" x="456.396484"/>
     <use xlink:href="#DejaVuSerif-65" x="488.378906"/>
     <use xlink:href="#DejaVuSerif-20" x="547.558594"/>
     <use xlink:href="#DejaVuSerif-6f" x="579.345703"/>
     <use xlink:href="#DejaVuSerif-75" x="639.550781"/>
     <use xlink:href="#DejaVuSerif-74" x="703.955078"/>
     <use xlink:href="#DejaVuSerif-63" x="744.140625"/>
     <use xlink:href="#DejaVuSerif-6f" x="800.146484"/>
     <use xlink:href="#DejaVuSerif-6d" x="860.351562"/>
     <use xlink:href="#DejaVuSerif-65" x="955.175781"/>
     <use xlink:href="#DejaVuSerif-73" x="1014.355469"/>
    </g>
   </g>
  </g>
  <g id="axes_2">
   <g id="patch_7">
    <path d="M 237.62375 145.9666 
L 413.70375 145.9666 
L 413.70375 40.2666 
L 237.62375 40.2666 
L 237.62375 145.9666 
z
" style="fill: none"/>
   </g>
   <g id="matplotlib.axis_3">
    <g id="xtick_4">
     <g id="line2d_14">
      <path d="M 245.627386 145.9666 
L 245.627386 40.2666 
" clip-path="url(#pa398c716be)" style="fill: none; stroke-dasharray: 1.48,0.64; stroke-dashoffset: 0; stroke: #838383; stroke-opacity: 0.25; stroke-width: 0.4"/>
     </g>
     <g id="line2d_15"/>
     <g id="text_8">
      <!-- 0 -->
      <g style="fill: #838383" transform="translate(241.809886 158.584725) scale(0.12 -0.12)">
       <use xlink:href="#DejaVuSerif-30"/>
      </g>
     </g>
    </g>
    <g id="xtick_5">
     <g id="line2d_16">
      <path d="M 310.963193 145.9666 
L 310.963193 40.2666 
" clip-path="url(#pa398c716be)" style="fill: none; stroke-dasharray: 1.48,0.64; stroke-dashoffset: 0; stroke: #838383; stroke-opacity: 0.25; stroke-width: 0.4"/>
     </g>
     <g id="line2d_17"/>
     <g id="text_9">
      <!-- 20 -->
      <g style="fill: #838383" transform="translate(303.328193 158.584725) scale(0.12 -0.12)">
       <use xlink:href="#DejaVuSerif-32"/>
       <use xlink:href="#DejaVuSerif-30" x="63.623047"/>
      </g>
     </g>
    </g>
    <g id="xtick_6">
     <g id="line2d_18">
      <path d="M 376.299 145.9666 
L 376.299 40.2666 
" clip-path="url(#pa398c716be)" style="fill: none; stroke-dasharray: 1.48,0.64; stroke-dashoffset: 0; stroke: #838383; stroke-opacity: 0.25; stroke-width: 0.4"/>
     </g>
     <g id="line2d_19"/>
     <g id="text_10">
      <!-- 40 -->
      <g style="fill: #838383" transform="translate(368.664 158.584725) scale(0.12 -0.12)">
       <use xlink:href="#DejaVuSerif-34"/>
       <use xlink:href="#DejaVuSerif-30" x="63.623047"/>
      </g>
     </g>
    </g>
   </g>
   <g id="matplotlib.axis_4">
    <g id="ytick_4">
     <g id="line2d_20">
      <path d="M 237.62375 141.162055 
L 413.70375 141.162055 
" clip-path="url(#pa398c716be)" style="fill: none; stroke-dasharray: 1.48,0.64; stroke-dashoffset: 0; stroke: #838383; stroke-opacity: 0.25; stroke-width: 0.4"/>
     </g>
     <g id="line2d_21"/>
     <g id="text_11">
      <!-- 0 -->
      <g style="fill: #838383" transform="translate(226.48875 145.721117) scale(0.12 -0.12)">
       <use xlink:href="#DejaVuSerif-30"/>
      </g>
     </g>
    </g>
    <g id="ytick_5">
     <g id="line2d_22">
      <path d="M 237.62375 109.131752 
L 413.70375 109.131752 
" clip-path="url(#pa398c716be)" style="fill: none; stroke-dasharray: 1.48,0.64; stroke-dashoffset: 0; stroke: #838383; stroke-opacity: 0.25; stroke-width: 0.4"/>
     </g>
     <g id="line2d_23"/>
     <g id="text_12">
      <!-- 1 -->
      <g style="fill: #838383" transform="translate(226.48875 113.690814) scale(0.12 -0.12)">
       <use xlink:href="#DejaVuSerif-31"/>
      </g>
     </g>
    </g>
    <g id="ytick_6">
     <g id="line2d_24">
      <path d="M 237.62375 77.101448 
L 413.70375 77.101448 
" clip-path="url(#pa398c716be)" style="fill: none; stroke-dasharray: 1.48,0.64; stroke-dashoffset: 0; stroke: #838383; stroke-opacity: 0.25; stroke-width: 0.4"/>
     </g>
     <g id="line2d_25"/>
     <g id="text_13">
      <!-- 2 -->
      <g style="fill: #838383" transform="translate(226.48875 81.660511) scale(0.12 -0.12)">
       <use xlink:href="#DejaVuSerif-32"/>
      </g>
     </g>
    </g>
    <g id="ytick_7">
     <g id="line2d_26">
      <path d="M 237.62375 45.071145 
L 413.70375 45.071145 
" clip-path="url(#pa398c716be)" style="fill: none; stroke-dasharray: 1.48,0.64; stroke-dashoffset: 0; stroke: #838383; stroke-opacity: 0.25; stroke-width: 0.4"/>
     </g>
     <g id="line2d_27"/>
     <g id="text_14">
      <!-- 3 -->
      <g style="fill: #838383" transform="translate(226.48875 49.630208) scale(0.12 -0.12)">
       <defs>
        <path id="DejaVuSerif-33" d="M 622 4469 
Q 988 4606 1323 4678 
Q 1659 4750 1953 4750 
Q 2638 4750 3022 4454 
Q 3406 4159 3406 3634 
Q 3406 3213 3140 2930 
Q 2875 2647 2388 2547 
Q 2963 2466 3280 2130 
Q 3597 1794 3597 1259 
Q 3597 606 3158 257 
Q 2719 -91 1894 -91 
Q 1528 -91 1179 -12 
Q 831 66 488 225 
L 488 1131 
L 838 1131 
Q 869 681 1141 450 
Q 1413 219 1906 219 
Q 2384 219 2661 495 
Q 2938 772 2938 1253 
Q 2938 1803 2653 2086 
Q 2369 2369 1819 2369 
L 1522 2369 
L 1522 2688 
L 1678 2688 
Q 2225 2688 2498 2914 
Q 2772 3141 2772 3597 
Q 2772 4006 2547 4223 
Q 2322 4441 1900 4441 
Q 1478 4441 1245 4241 
Q 1013 4041 972 3647 
L 622 3647 
L 622 4469 
z
" transform="scale(0.015625)"/>
       </defs>
       <use xlink:href="#DejaVuSerif-33"/>
      </g>
     </g>
    </g>
   </g>
   <g id="line2d_28">
    <path d="M 245.627386 141.162055 
L 248.894177 141.162055 
L 252.160967 141.162055 
L 255.427757 141.162055 
L 258.694548 141.162055 
L 261.961338 141.162055 
L 265.228128 141.162055 
L 268.494919 141.162055 
L 271.761709 141.162055 
L 275.0285 141.162055 
L 278.29529 141.162055 
L 281.56208 141.162055 
L 284.828871 141.162055 
L 288.095661 141.162055 
L 291.362451 141.162055 
L 294.629242 141.162055 
L 297.896032 141.162055 
L 301.162822 141.162055 
L 304.429613 141.162055 
L 307.696403 141.162055 
L 310.963193 141.162055 
L 314.229984 141.162055 
L 317.496774 141.162055 
L 320.763564 141.162055 
L 324.030355 141.162055 
L 327.297145 141.162055 
L 330.563936 141.162055 
L 333.830726 141.162055 
L 337.097516 109.131752 
L 340.364307 109.131752 
L 343.631097 109.131752 
L 346.897887 109.131752 
L 350.164678 109.131752 
L 353.431468 109.131752 
L 356.698258 109.131752 
L 359.965049 109.131752 
L 363.231839 109.131752 
L 366.498629 109.131752 
L 369.76542 109.131752 
L 373.03221 109.131752 
L 376.299 109.131752 
L 379.565791 109.131752 
L 382.832581 109.131752 
L 386.099372 77.101448 
L 389.366162 77.101448 
L 392.632952 77.101448 
L 395.899743 77.101448 
L 399.166533 77.101448 
L 402.433323 45.071145 
L 405.700114 45.071145 
" clip-path="url(#pa398c716be)" style="fill: none"/>
    <g clip-path="url(#pa398c716be)">
     <use xlink:href="#m73c76f1119" x="245.627386" y="141.162055" style="fill: #2196f3; stroke: #2196f3"/>
     <use xlink:href="#m73c76f1119" x="248.894177" y="141.162055" style="fill: #2196f3; stroke: #2196f3"/>
     <use xlink:href="#m73c76f1119" x="252.160967" y="141.162055" style="fill: #2196f3; stroke: #2196f3"/>
     <use xlink:href="#m73c76f1119" x="255.427757" y="141.162055" style="fill: #2196f3; stroke: #2196f3"/>
     <use xlink:href="#m73c76f1119" x="258.694548" y="141.162055" style="fill: #2196f3; stroke: #2196f3"/>
     <use xlink:href="#m73c76f1119" x="261.961338" y="141.162055" style="fill: #2196f3; stroke: #2196f3"/>
     <use xlink:href="#m73c76f1119" x="265.228128" y="141.162055" style="fill: #2196f3; stroke: #2196f3"/>
     <use xlink:href="#m73c76f1119" x="268.494919" y="141.162055" style="fill: #2196f3; stroke: #2196f3"/>
     <use xlink:href="#m73c76f1119" x="271.761709" y="141.162055" style="fill: #2196f3; stroke: #2196f3"/>
     <use xlink:href="#m73c76f1119" x="275.0285" y="141.162055" style="fill: #2196f3; stroke: #2196f3"/>
     <use xlink:href="#m73c76f1119" x="278.29529" y="141.162055" style="fill: #2196f3; stroke: #2196f3"/>
     <use xlink:href="#m73c76f1119" x="281.56208" y="141.162055" style="fill: #2196f3; stroke: #2196f3"/>
     <use xlink:href="#m73c76f1119" x="284.828871" y="141.162055" style="fill: #2196f3; stroke: #2196f3"/>
     <use xlink:href="#m73c76f1119" x="288.095661" y="141.162055" style="fill: #2196f3; stroke: #2196f3"/>
     <use xlink:href="#m73c76f1119" x="291.362451" y="141.162055" style="fill: #2196f3; stroke: #2196f3"/>
     <use xlink:href="#m73c76f1119" x="294.629242" y="141.162055" style="fill: #2196f3; stroke: #2196f3"/>
     <use xlink:href="#m73c76f1119" x="297.896032" y="141.162055" style="fill: #2196f3; stroke: #2196f3"/>
     <use xlink:href="#m73c76f1119" x="301.162822" y="141.162055" style="fill: #2196f3; stroke: #2196f3"/>
     <use xlink:href="#m73c76f1119" x="304.429613" y="141.162055" style="fill: #2196f3; stroke: #2196f3"/>
     <use xlink:href="#m73c76f1119" x="307.696403" y="141.162055" style="fill: #2196f3; stroke: #2196f3"/>
     <use xlink:href="#m73c76f1119" x="310.963193" y="141.162055" style="fill: #2196f3; stroke: #2196f3"/>
     <use xlink:href="#m73c76f1119" x="314.229984" y="141.162055" style="fill: #2196f3; stroke: #2196f3"/>
     <use xlink:href="#m73c76f1119" x="317.496774" y="141.162055" style="fill: #2196f3; stroke: #2196f3"/>
     <use xlink:href="#m73c76f1119" x="320.763564" y="141.162055" style="fill: #2196f3; stroke: #2196f3"/>
     <use xlink:href="#m73c76f1119" x="324.030355" y="141.162055" style="fill: #2196f3; stroke: #2196f3"/>
     <use xlink:href="#m73c76f1119" x="327.297145" y="141.162055" style="fill: #2196f3; stroke: #2196f3"/>
     <use xlink:href="#m73c76f1119" x="330.563936" y="141.162055" style="fill: #2196f3; stroke: #2196f3"/>
     <use xlink:href="#m73c76f1119" x="333.830726" y="141.162055" style="fill: #2196f3; stroke: #2196f3"/>
     <use xlink:href="#m73c76f1119" x="337.097516" y="109.131752" style="fill: #2196f3; stroke: #2196f3"/>
     <use xlink:href="#m73c76f1119" x="340.364307" y="109.131752" style="fill: #2196f3; stroke: #2196f3"/>
     <use xlink:href="#m73c76f1119" x="343.631097" y="109.131752" style="fill: #2196f3; stroke: #2196f3"/>
     <use xlink:href="#m73c76f1119" x="346.897887" y="109.131752" style="fill: #2196f3; stroke: #2196f3"/>
     <use xlink:href="#m73c76f1119" x="350.164678" y="109.131752" style="fill: #2196f3; stroke: #2196f3"/>
     <use xlink:href="#m73c76f1119" x="353.431468" y="109.131752" style="fill: #2196f3; stroke: #2196f3"/>
     <use xlink:href="#m73c76f1119" x="356.698258" y="109.131752" style="fill: #2196f3; stroke: #2196f3"/>
     <use xlink:href="#m73c76f1119" x="359.965049" y="109.131752" style="fill: #2196f3; stroke: #2196f3"/>
     <use xlink:href="#m73c76f1119" x="363.231839" y="109.131752" style="fill: #2196f3; stroke: #2196f3"/>
     <use xlink:href="#m73c76f1119" x="366.498629" y="109.131752" style="fill: #2196f3; stroke: #2196f3"/>
     <use xlink:href="#m73c76f1119" x="369.76542" y="109.131752" style="fill: #2196f3; stroke: #2196f3"/>
     <use xlink:href="#m73c76f1119" x="373.03221" y="109.131752" style="fill: #2196f3; stroke: #2196f3"/>
     <use xlink:href="#m73c76f1119" x="376.299" y="109.131752" style="fill: #2196f3; stroke: #2196f3"/>
     <use xlink:href="#m73c76f1119" x="379.565791" y="109.131752" style="fill: #2196f3; stroke: #2196f3"/>
     <use xlink:href="#m73c76f1119" x="382.832581" y="109.131752" style="fill: #2196f3; stroke: #2196f3"/>
     <use xlink:href="#m73c76f1119" x="386.099372" y="77.101448" style="fill: #2196f3; stroke: #2196f3"/>
     <use xlink:href="#m73c76f1119" x="389.366162" y="77.101448" style="fill: #2196f3; stroke: #2196f3"/>
     <use xlink:href="#m73c76f1119" x="392.632952" y="77.101448" style="fill: #2196f3; stroke: #2196f3"/>
     <use xlink:href="#m73c76f1119" x="395.899743" y="77.101448" style="fill: #2196f3; stroke: #2196f3"/>
     <use xlink:href="#m73c76f1119" x="399.166533" y="77.101448" style="fill: #2196f3; stroke: #2196f3"/>
     <use xlink:href="#m73c76f1119" x="402.433323" y="45.071145" style="fill: #2196f3; stroke: #2196f3"/>
     <use xlink:href="#m73c76f1119" x="405.700114" y="45.071145" style="fill: #2196f3; stroke: #2196f3"/>
    </g>
   </g>
   <g id="patch_8">
    <path d="M 237.62375 145.9666 
L 237.62375 40.2666 
" style="fill: none"/>
   </g>
   <g id="patch_9">
    <path d="M 413.70375 145.9666 
L 413.70375 40.2666 
" style="fill: none"/>
   </g>
   <g id="patch_10">
    <path d="M 237.62375 145.9666 
L 413.70375 145.9666 
" style="fill: none"/>
   </g>
   <g id="patch_11">
    <path d="M 237.62375 40.2666 
L 413.70375 40.2666 
" style="fill: none"/>
   </g>
   <g id="text_15">
    <!-- (b) Cumulative sum of  -->
    <g style="fill: #838383" transform="translate(242.39125 18.14175) scale(0.144 -0.144)">
     <defs>
      <path id="DejaVuSerif-62" d="M 738 331 
L 738 4531 
L 184 4531 
L 184 4863 
L 1313 4863 
L 1313 2803 
Q 1481 3116 1742 3264 
Q 2003 3413 2388 3413 
Q 3000 3413 3387 2928 
Q 3775 2444 3775 1663 
Q 3775 881 3387 395 
Q 3000 -91 2388 -91 
Q 2003 -91 1742 57 
Q 1481 206 1313 519 
L 1313 0 
L 184 0 
L 184 331 
L 738 331 
z
M 1313 1497 
Q 1313 897 1542 583 
Q 1772 269 2209 269 
Q 2650 269 2876 622 
Q 3103 975 3103 1663 
Q 3103 2353 2876 2703 
Q 2650 3053 2209 3053 
Q 1772 3053 1542 2737 
Q 1313 2422 1313 1825 
L 1313 1497 
z
" transform="scale(0.015625)"/>
      <path id="DejaVuSerif-43" d="M 4513 1234 
Q 4306 581 3820 245 
Q 3334 -91 2591 -91 
Q 2134 -91 1743 65 
Q 1353 222 1050 525 
Q 700 875 529 1320 
Q 359 1766 359 2328 
Q 359 3416 987 4083 
Q 1616 4750 2644 4750 
Q 3025 4750 3456 4650 
Q 3888 4550 4384 4347 
L 4384 3272 
L 4031 3272 
Q 3916 3859 3567 4137 
Q 3219 4416 2591 4416 
Q 1844 4416 1459 3886 
Q 1075 3356 1075 2328 
Q 1075 1303 1459 773 
Q 1844 244 2591 244 
Q 3113 244 3450 492 
Q 3788 741 3938 1234 
L 4513 1234 
z
" transform="scale(0.015625)"/>
      <path id="DejaVuSerif-69" d="M 622 4353 
Q 622 4497 726 4603 
Q 831 4709 978 4709 
Q 1122 4709 1226 4603 
Q 1331 4497 1331 4353 
Q 1331 4206 1228 4103 
Q 1125 4000 978 4000 
Q 831 4000 726 4103 
Q 622 4206 622 4353 
z
M 1356 331 
L 1900 331 
L 1900 0 
L 231 0 
L 231 331 
L 781 331 
L 781 2988 
L 231 2988 
L 231 3322 
L 1356 3322 
L 1356 331 
z
" transform="scale(0.015625)"/>
      <path id="DejaVuSerif-76" d="M 1581 0 
L 359 2988 
L -19 2988 
L -19 3322 
L 1509 3322 
L 1509 2988 
L 978 2988 
L 1913 703 
L 2847 2988 
L 2350 2988 
L 2350 3322 
L 3597 3322 
L 3597 2988 
L 3225 2988 
L 2003 0 
L 1581 0 
z
" transform="scale(0.015625)"/>
      <path id="DejaVuSerif-66" d="M 2753 4078 
L 2450 4078 
Q 2447 4313 2317 4434 
Q 2188 4556 1941 4556 
Q 1619 4556 1487 4379 
Q 1356 4203 1356 3750 
L 1356 3322 
L 2284 3322 
L 2284 2988 
L 1356 2988 
L 1356 331 
L 2094 331 
L 2094 0 
L 231 0 
L 231 331 
L 781 331 
L 781 2988 
L 231 2988 
L 231 3322 
L 781 3322 
L 781 3738 
Q 781 4294 1070 4578 
Q 1359 4863 1919 4863 
Q 2128 4863 2337 4825 
Q 2547 4788 2753 4709 
L 2753 4078 
z
" transform="scale(0.015625)"/>
     </defs>
     <use xlink:href="#DejaVuSerif-28"/>
     <use xlink:href="#DejaVuSerif-62" x="39.013672"/>
     <use xlink:href="#DejaVuSerif-29" x="103.027344"/>
     <use xlink:href="#DejaVuSerif-20" x="142.041016"/>
     <use xlink:href="#DejaVuSerif-43" x="173.828125"/>
     <use xlink:href="#DejaVuSerif-75" x="250.341797"/>
     <use xlink:href="#DejaVuSerif-6d" x="314.746094"/>
     <use xlink:href="#DejaVuSerif-75" x="409.570312"/>
     <use xlink:href="#DejaVuSerif-6c" x="473.974609"/>
     <use xlink:href="#DejaVuSerif-61" x="505.957031"/>
     <use xlink:href="#DejaVuSerif-74" x="565.576172"/>
     <use xlink:href="#DejaVuSerif-69" x="605.761719"/>
     <use xlink:href="#DejaVuSerif-76" x="637.744141"/>
     <use xlink:href="#DejaVuSerif-65" x="694.238281"/>
     <use xlink:href="#DejaVuSerif-20" x="753.417969"/>
     <use xlink:href="#DejaVuSerif-73" x="785.205078"/>
     <use xlink:href="#DejaVuSerif-75" x="836.523438"/>
     <use xlink:href="#DejaVuSerif-6d" x="900.927734"/>
     <use xlink:href="#DejaVuSerif-20" x="995.751953"/>
     <use xlink:href="#DejaVuSerif-6f" x="1027.539062"/>
     <use xlink:href="#DejaVuSerif-66" x="1087.744141"/>
     <use xlink:href="#DejaVuSerif-20" x="1124.755859"/>
    </g>
    <!--  sample outcomes -->
    <g style="fill: #838383" transform="translate(260.083 34.2666) scale(0.144 -0.144)">
     <use xlink:href="#DejaVuSerif-20"/>
     <use xlink:href="#DejaVuSerif-73" x="31.787109"/>
     <use xlink:href="#DejaVuSerif-61" x="83.105469"/>
     <use xlink:href="#DejaVuSerif-6d" x="142.724609"/>
     <use xlink:href="#DejaVuSerif-70" x="237.548828"/>
     <use xlink:href="#DejaVuSerif-6c" x="301.5625"/>
     <use xlink:href="#DejaVuSerif-65" x="333.544922"/>
     <use xlink:href="#DejaVuSerif-20" x="392.724609"/>
     <use xlink:href="#DejaVuSerif-6f" x="424.511719"/>
     <use xlink:href="#DejaVuSerif-75" x="484.716797"/>
     <use xlink:href="#DejaVuSerif-74" x="549.121094"/>
     <use xlink:href="#DejaVuSerif-63" x="589.306641"/>
     <use xlink:href="#DejaVuSerif-6f" x="645.3125"/>
     <use xlink:href="#DejaVuSerif-6d" x="705.517578"/>
     <use xlink:href="#DejaVuSerif-65" x="800.341797"/>
     <use xlink:href="#DejaVuSerif-73" x="859.521484"/>
    </g>
   </g>
  </g>
  <g id="axes_3">
   <g id="patch_12">
    <path d="M 445.46375 145.9666 
L 621.54375 145.9666 
L 621.54375 40.2666 
L 445.46375 40.2666 
L 445.46375 145.9666 
z
" style="fill: none"/>
   </g>
   <g id="patch_13">
    <path d="M 453.467386 145.9666 
L 524.610821 145.9666 
L 524.610821 45.299933 
L 453.467386 45.299933 
z
" clip-path="url(#pf06fdfab5d)" style="fill: #2196f3"/>
   </g>
   <g id="patch_14">
    <path d="M 542.396679 145.9666 
L 613.540114 145.9666 
L 613.540114 139.541068 
L 542.396679 139.541068 
z
" clip-path="url(#pf06fdfab5d)" style="fill: #2196f3"/>
   </g>
   <g id="matplotlib.axis_5">
    <g id="xtick_7">
     <g id="line2d_29">
      <path d="M 489.039104 145.9666 
L 489.039104 40.2666 
" clip-path="url(#pf06fdfab5d)" style="fill: none; stroke-dasharray: 1.48,0.64; stroke-dashoffset: 0; stroke: #838383; stroke-opacity: 0.25; stroke-width: 0.4"/>
     </g>
     <g id="line2d_30"/>
     <g id="text_16">
      <!-- 0.0 -->
      <g style="fill: #838383" transform="translate(479.497229 158.584725) scale(0.12 -0.12)">
       <use xlink:href="#DejaVuSerif-30"/>
       <use xlink:href="#DejaVuSerif-2e" x="63.623047"/>
       <use xlink:href="#DejaVuSerif-30" x="95.410156"/>
      </g>
     </g>
    </g>
    <g id="xtick_8">
     <g id="line2d_31">
      <path d="M 533.50375 145.9666 
L 533.50375 40.2666 
" clip-path="url(#pf06fdfab5d)" style="fill: none; stroke-dasharray: 1.48,0.64; stroke-dashoffset: 0; stroke: #838383; stroke-opacity: 0.25; stroke-width: 0.4"/>
     </g>
     <g id="line2d_32"/>
     <g id="text_17">
      <!-- 0.5 -->
      <g style="fill: #838383" transform="translate(523.961875 158.584725) scale(0.12 -0.12)">
       <use xlink:href="#DejaVuSerif-30"/>
       <use xlink:href="#DejaVuSerif-2e" x="63.623047"/>
       <use xlink:href="#DejaVuSerif-35" x="95.410156"/>
      </g>
     </g>
    </g>
    <g id="xtick_9">
     <g id="line2d_33">
      <path d="M 577.968396 145.9666 
L 577.968396 40.2666 
" clip-path="url(#pf06fdfab5d)" style="fill: none; stroke-dasharray: 1.48,0.64; stroke-dashoffset: 0; stroke: #838383; stroke-opacity: 0.25; stroke-width: 0.4"/>
     </g>
     <g id="line2d_34"/>
     <g id="text_18">
      <!-- 1.0 -->
      <g style="fill: #838383" transform="translate(568.426521 158.584725) scale(0.12 -0.12)">
       <use xlink:href="#DejaVuSerif-31"/>
       <use xlink:href="#DejaVuSerif-2e" x="63.623047"/>
       <use xlink:href="#DejaVuSerif-30" x="95.410156"/>
      </g>
     </g>
    </g>
   </g>
   <g id="matplotlib.axis_6">
    <g id="ytick_8">
     <g id="line2d_35">
      <path d="M 445.46375 145.9666 
L 621.54375 145.9666 
" clip-path="url(#pf06fdfab5d)" style="fill: none; stroke-dasharray: 1.48,0.64; stroke-dashoffset: 0; stroke: #838383; stroke-opacity: 0.25; stroke-width: 0.4"/>
     </g>
     <g id="line2d_36"/>
     <g id="text_19">
      <!-- 0 -->
      <g style="fill: #838383" transform="translate(434.32875 150.525663) scale(0.12 -0.12)">
       <use xlink:href="#DejaVuSerif-30"/>
      </g>
     </g>
    </g>
    <g id="ytick_9">
     <g id="line2d_37">
      <path d="M 445.46375 103.129721 
L 621.54375 103.129721 
" clip-path="url(#pf06fdfab5d)" style="fill: none; stroke-dasharray: 1.48,0.64; stroke-dashoffset: 0; stroke: #838383; stroke-opacity: 0.25; stroke-width: 0.4"/>
     </g>
     <g id="line2d_38"/>
     <g id="text_20">
      <!-- 20 -->
      <g style="fill: #838383" transform="translate(426.69375 107.688783) scale(0.12 -0.12)">
       <use xlink:href="#DejaVuSerif-32"/>
       <use xlink:href="#DejaVuSerif-30" x="63.623047"/>
      </g>
     </g>
    </g>
    <g id="ytick_10">
     <g id="line2d_39">
      <path d="M 445.46375 60.292841 
L 621.54375 60.292841 
" clip-path="url(#pf06fdfab5d)" style="fill: none; stroke-dasharray: 1.48,0.64; stroke-dashoffset: 0; stroke: #838383; stroke-opacity: 0.25; stroke-width: 0.4"/>
     </g>
     <g id="line2d_40"/>
     <g id="text_21">
      <!-- 40 -->
      <g style="fill: #838383" transform="translate(426.69375 64.851904) scale(0.12 -0.12)">
       <use xlink:href="#DejaVuSerif-34"/>
       <use xlink:href="#DejaVuSerif-30" x="63.623047"/>
      </g>
     </g>
    </g>
   </g>
   <g id="patch_15">
    <path d="M 445.46375 145.9666 
L 445.46375 40.2666 
" style="fill: none"/>
   </g>
   <g id="patch_16">
    <path d="M 621.54375 145.9666 
L 621.54375 40.2666 
" style="fill: none"/>
   </g>
   <g id="patch_17">
    <path d="M 445.46375 145.9666 
L 621.54375 145.9666 
" style="fill: none"/>
   </g>
   <g id="patch_18">
    <path d="M 445.46375 40.2666 
L 621.54375 40.2666 
" style="fill: none"/>
   </g>
   <g id="text_22">
    <!-- (c) Observed outcome frequency -->
    <g style="fill: #838383" transform="translate(414.2065 34.2666) scale(0.144 -0.144)">
     <defs>
      <path id="DejaVuSerif-4f" d="M 2625 244 
Q 3391 244 3781 770 
Q 4172 1297 4172 2328 
Q 4172 3363 3781 3889 
Q 3391 4416 2625 4416 
Q 1856 4416 1465 3889 
Q 1075 3363 1075 2328 
Q 1075 1297 1465 770 
Q 1856 244 2625 244 
z
M 2625 -91 
Q 2150 -91 1751 65 
Q 1353 222 1050 525 
Q 700 875 529 1319 
Q 359 1763 359 2328 
Q 359 2894 529 3339 
Q 700 3784 1050 4134 
Q 1356 4441 1750 4595 
Q 2144 4750 2625 4750 
Q 3641 4750 4266 4084 
Q 4891 3419 4891 2328 
Q 4891 1769 4719 1320 
Q 4547 872 4197 525 
Q 3891 219 3497 64 
Q 3103 -91 2625 -91 
z
" transform="scale(0.015625)"/>
      <path id="DejaVuSerif-72" d="M 3059 3328 
L 3059 2497 
L 2728 2497 
Q 2713 2744 2591 2866 
Q 2469 2988 2234 2988 
Q 1809 2988 1582 2694 
Q 1356 2400 1356 1850 
L 1356 331 
L 2022 331 
L 2022 0 
L 263 0 
L 263 331 
L 781 331 
L 781 2994 
L 231 2994 
L 231 3322 
L 1356 3322 
L 1356 2731 
Q 1525 3078 1790 3245 
Q 2056 3413 2438 3413 
Q 2578 3413 2733 3391 
Q 2888 3369 3059 3328 
z
" transform="scale(0.015625)"/>
      <path id="DejaVuSerif-64" d="M 3359 331 
L 3909 331 
L 3909 0 
L 2784 0 
L 2784 519 
Q 2616 206 2355 57 
Q 2094 -91 1709 -91 
Q 1097 -91 708 395 
Q 319 881 319 1663 
Q 319 2444 706 2928 
Q 1094 3413 1709 3413 
Q 2094 3413 2355 3264 
Q 2616 3116 2784 2803 
L 2784 4531 
L 2241 4531 
L 2241 4863 
L 3359 4863 
L 3359 331 
z
M 2784 1497 
L 2784 1825 
Q 2784 2422 2554 2737 
Q 2325 3053 1888 3053 
Q 1444 3053 1217 2703 
Q 991 2353 991 1663 
Q 991 975 1217 622 
Q 1444 269 1888 269 
Q 2325 269 2554 583 
Q 2784 897 2784 1497 
z
" transform="scale(0.015625)"/>
      <path id="DejaVuSerif-71" d="M 3359 2988 
L 3359 -997 
L 3909 -997 
L 3909 -1331 
L 2241 -1331 
L 2241 -997 
L 2784 -997 
L 2784 519 
Q 2616 206 2355 57 
Q 2094 -91 1709 -91 
Q 1097 -91 708 395 
Q 319 881 319 1663 
Q 319 2444 706 2928 
Q 1094 3413 1709 3413 
Q 2094 3413 2355 3264 
Q 2616 3116 2784 2803 
L 2784 3322 
L 3909 3322 
L 3909 2988 
L 3359 2988 
z
M 2784 1825 
Q 2784 2422 2554 2737 
Q 2325 3053 1888 3053 
Q 1444 3053 1217 2703 
Q 991 2353 991 1663 
Q 991 975 1217 622 
Q 1444 269 1888 269 
Q 2325 269 2554 583 
Q 2784 897 2784 1497 
L 2784 1825 
z
" transform="scale(0.015625)"/>
      <path id="DejaVuSerif-6e" d="M 263 0 
L 263 331 
L 781 331 
L 781 2988 
L 231 2988 
L 231 3322 
L 1356 3322 
L 1356 2731 
Q 1516 3069 1770 3241 
Q 2025 3413 2363 3413 
Q 2913 3413 3172 3097 
Q 3431 2781 3431 2113 
L 3431 331 
L 3944 331 
L 3944 0 
L 2356 0 
L 2356 331 
L 2853 331 
L 2853 1931 
Q 2853 2541 2703 2767 
Q 2553 2994 2175 2994 
Q 1775 2994 1565 2701 
Q 1356 2409 1356 1850 
L 1356 331 
L 1856 331 
L 1856 0 
L 263 0 
z
" transform="scale(0.015625)"/>
      <path id="DejaVuSerif-79" d="M 1381 -609 
L 1600 -56 
L 359 2988 
L -19 2988 
L -19 3322 
L 1509 3322 
L 1509 2988 
L 978 2988 
L 1913 703 
L 2847 2988 
L 2350 2988 
L 2350 3322 
L 3597 3322 
L 3597 2988 
L 3225 2988 
L 1703 -750 
Q 1547 -1138 1356 -1280 
Q 1166 -1422 819 -1422 
Q 672 -1422 517 -1397 
Q 363 -1372 206 -1325 
L 206 -691 
L 500 -691 
Q 519 -903 608 -995 
Q 697 -1088 884 -1088 
Q 1056 -1088 1161 -992 
Q 1266 -897 1381 -609 
z
" transform="scale(0.015625)"/>
     </defs>
     <use xlink:href="#DejaVuSerif-28"/>
     <use xlink:href="#DejaVuSerif-63" x="39.013672"/>
     <use xlink:href="#DejaVuSerif-29" x="95.019531"/>
     <use xlink:href="#DejaVuSerif-20" x="134.033203"/>
     <use xlink:href="#DejaVuSerif-4f" x="165.820312"/>
     <use xlink:href="#DejaVuSerif-62" x="247.802734"/>
     <use xlink:href="#DejaVuSerif-73" x="311.816406"/>
     <use xlink:href="#DejaVuSerif-65" x="363.134766"/>
     <use xlink:href="#DejaVuSerif-72" x="422.314453"/>
     <use xlink:href="#DejaVuSerif-76" x="470.117188"/>
     <use xlink:href="#DejaVuSerif-65" x="526.611328"/>
     <use xlink:href="#DejaVuSerif-64" x="585.791016"/>
     <use xlink:href="#DejaVuSerif-20" x="649.804688"/>
     <use xlink:href="#DejaVuSerif-6f" x="681.591797"/>
     <use xlink:href="#DejaVuSerif-75" x="741.796875"/>
     <use xlink:href="#DejaVuSerif-74" x="806.201172"/>
     <use xlink:href="#DejaVuSerif-63" x="846.386719"/>
     <use xlink:href="#DejaVuSerif-6f" x="902.392578"/>
     <use xlink:href="#DejaVuSerif-6d" x="962.597656"/>
     <use xlink:href="#DejaVuSerif-65" x="1057.421875"/>
     <use xlink:href="#DejaVuSerif-20" x="1116.601562"/>
     <use xlink:href="#DejaVuSerif-66" x="1148.388672"/>
     <use xlink:href="#DejaVuSerif-72" x="1185.400391"/>
     <use xlink:href="#DejaVuSerif-65" x="1233.203125"/>
     <use xlink:href="#DejaVuSerif-71" x="1292.382812"/>
     <use xlink:href="#DejaVuSerif-75" x="1356.396484"/>
     <use xlink:href="#DejaVuSerif-65" x="1420.800781"/>
     <use xlink:href="#DejaVuSerif-6e" x="1479.980469"/>
     <use xlink:href="#DejaVuSerif-63" x="1544.384766"/>
     <use xlink:href="#DejaVuSerif-79" x="1600.390625"/>
    </g>
   </g>
  </g>
 </g>
 <defs>
  <clipPath id="p6f28f84045">
   <rect x="29.78375" y="40.2666" width="176.08" height="105.7"/>
  </clipPath>
  <clipPath id="pa398c716be">
   <rect x="237.62375" y="40.2666" width="176.08" height="105.7"/>
  </clipPath>
  <clipPath id="pf06fdfab5d">
   <rect x="445.46375" y="40.2666" width="176.08" height="105.7"/>
  </clipPath>
 </defs>
</svg>
