<?xml version="1.0" encoding="UTF-8" standalone="no"?>
<!DOCTYPE svg PUBLIC "-//W3C//DTD SVG 1.1//EN"
 "http://www.w3.org/Graphics/SVG/1.1/DTD/svg11.dtd">
<!-- Generated by graphviz version 12.0.0 (20240803.0821)
 -->
<!-- Pages: 1 -->
<svg width="395pt" height="276pt"
 viewBox="0.00 0.00 394.54 275.63" xmlns="http://www.w3.org/2000/svg" xmlns:xlink="http://www.w3.org/1999/xlink">
<g id="graph0" class="graph" transform="scale(1 1) rotate(0) translate(4 271.63)">
<polygon fill="white" stroke="none" points="-4,4 -4,-271.63 390.54,-271.63 390.54,4 -4,4"/>
<g id="clust1" class="cluster">
<title>cluster4</title>
<path fill="none" stroke="black" d="M175.54,-137.82C175.54,-137.82 366.54,-137.82 366.54,-137.82 372.54,-137.82 378.54,-143.82 378.54,-149.82 378.54,-149.82 378.54,-247.63 378.54,-247.63 378.54,-253.63 372.54,-259.63 366.54,-259.63 366.54,-259.63 175.54,-259.63 175.54,-259.63 169.54,-259.63 163.54,-253.63 163.54,-247.63 163.54,-247.63 163.54,-149.82 163.54,-149.82 163.54,-143.82 169.54,-137.82 175.54,-137.82"/>
<text text-anchor="middle" x="367.17" y="-145.02" font-family="Times,serif" font-size="14.00">4</text>
</g>
<g id="clust2" class="cluster">
<title>cluster60 x 4</title>
<path fill="none" stroke="black" d="M160.54,-8C160.54,-8 272.54,-8 272.54,-8 278.54,-8 284.54,-14 284.54,-20 284.54,-20 284.54,-117.82 284.54,-117.82 284.54,-123.82 278.54,-129.82 272.54,-129.82 272.54,-129.82 160.54,-129.82 160.54,-129.82 154.54,-129.82 148.54,-123.82 148.54,-117.82 148.54,-117.82 148.54,-20 148.54,-20 148.54,-14 154.54,-8 160.54,-8"/>
<text text-anchor="middle" x="259.29" y="-15.2" font-family="Times,serif" font-size="14.00">60 x 4</text>
</g>
<!-- switchpoint -->
<g id="node1" class="node">
<title>switchpoint</title>
<ellipse fill="none" stroke="black" cx="76.54" cy="-210.98" rx="76.54" ry="40.66"/>
<text text-anchor="middle" x="76.54" y="-222.43" font-family="Times,serif" font-size="14.00">switchpoint</text>
<text text-anchor="middle" x="76.54" y="-205.93" font-family="Times,serif" font-size="14.00">~</text>
<text text-anchor="middle" x="76.54" y="-189.43" font-family="Times,serif" font-size="14.00">DiscreteUniform</text>
</g>
<!-- obs -->
<g id="node4" class="node">
<title>obs</title>
<ellipse fill="lightgrey" stroke="black" cx="216.54" cy="-81.16" rx="60.1" ry="40.66"/>
<text text-anchor="middle" x="216.54" y="-92.61" font-family="Times,serif" font-size="14.00">obs</text>
<text text-anchor="middle" x="216.54" y="-76.11" font-family="Times,serif" font-size="14.00">~</text>
<text text-anchor="middle" x="216.54" y="-59.61" font-family="Times,serif" font-size="14.00">Multinomial</text>
</g>
<!-- switchpoint&#45;&gt;obs -->
<g id="edge2" class="edge">
<title>switchpoint&#45;&gt;obs</title>
<path fill="none" stroke="black" d="M114.43,-175.39C132.55,-158.85 154.33,-138.96 173.12,-121.81"/>
<polygon fill="black" stroke="black" points="175.37,-124.49 180.39,-115.16 170.65,-119.32 175.37,-124.49"/>
</g>
<!-- p2 -->
<g id="node2" class="node">
<title>p2</title>
<ellipse fill="none" stroke="black" cx="216.54" cy="-210.98" rx="45.25" ry="40.66"/>
<text text-anchor="middle" x="216.54" y="-222.43" font-family="Times,serif" font-size="14.00">p2</text>
<text text-anchor="middle" x="216.54" y="-205.93" font-family="Times,serif" font-size="14.00">~</text>
<text text-anchor="middle" x="216.54" y="-189.43" font-family="Times,serif" font-size="14.00">Dirichlet</text>
</g>
<!-- p2&#45;&gt;obs -->
<g id="edge3" class="edge">
<title>p2&#45;&gt;obs</title>
<path fill="none" stroke="black" d="M216.54,-169.88C216.54,-158.34 216.54,-145.6 216.54,-133.48"/>
<polygon fill="black" stroke="black" points="220.04,-133.62 216.54,-123.62 213.04,-133.62 220.04,-133.62"/>
</g>
<!-- p1 -->
<g id="node3" class="node">
<title>p1</title>
<ellipse fill="none" stroke="black" cx="325.54" cy="-210.98" rx="45.25" ry="40.66"/>
<text text-anchor="middle" x="325.54" y="-222.43" font-family="Times,serif" font-size="14.00">p1</text>
<text text-anchor="middle" x="325.54" y="-205.93" font-family="Times,serif" font-size="14.00">~</text>
<text text-anchor="middle" x="325.54" y="-189.43" font-family="Times,serif" font-size="14.00">Dirichlet</text>
</g>
<!-- p1&#45;&gt;obs -->
<g id="edge1" class="edge">
<title>p1&#45;&gt;obs</title>
<path fill="none" stroke="black" d="M301.16,-176.27C291.89,-163.92 281.03,-149.99 270.54,-137.82 266.54,-133.16 262.24,-128.4 257.89,-123.71"/>
<polygon fill="black" stroke="black" points="260.49,-121.37 251.08,-116.5 255.4,-126.18 260.49,-121.37"/>
</g>
</g>
</svg>
